# xmcd CD database file
#
# Track frame offsets:
#	150
#	21247
#	41620
#	64887
#	88842
#	112957
#	129845
#	143147
#	166657
#	188915
#
# Disc length: 2701 seconds
#
# Revision: 3
# Processed by: cddbd v1.5PL3 Copyright (c) Steve Scherf et al.
# Submitted via: CDex 1.50
#
DISCID=800a8b0a
DTITLE=井上陽水 - 永遠のシュール
DYEAR=1994
DGENRE=Folk
TTITLE0=Queen
TTITLE1=真珠
TTITLE2=恋の神楽坂
TTITLE3=移動電話
TTITLE4=野蛮な再会
TTITLE5=カミナリと風
TTITLE6=ドレミのため息
TTITLE7=土曜日は晴れた
TTITLE8=タイランドファンタジア
TTITLE9=目がさめたら
EXTD=YEAR: 1994
EXTT0=
EXTT1=
EXTT2=
EXTT3=
EXTT4=
EXTT5=
EXTT6=
EXTT7=
EXTT8=
EXTT9=
PLAYORDER=
